<?xml version="1.0" encoding="utf-8"?>
<!-- Generator: Adobe Illustrator 23.1.0, SVG Export Plug-In . SVG Version: 6.00 Build 0)  -->
<svg version="1.1" id="Layer_1" xmlns="http://www.w3.org/2000/svg" xmlns:xlink="http://www.w3.org/1999/xlink" x="0px" y="0px"
	 viewBox="0 0 272.8 99.5" style="enable-background:new 0 0 272.8 99.5;" xml:space="preserve">
<style type="text/css">
	.st0{fill-rule:evenodd;clip-rule:evenodd;fill:#E22329;}
</style>
<g id="XMLID_2859_">
	<path id="XMLID_2975_" class="st0" d="M135.97,46.25L135.97,46.25c-11.94-0.43-21.57-10.64-21.57-23.11
		c0-12.47,9.62-22.69,21.57-23.12v8.73h-0.22c-3.66,0-6.65,3.09-6.65,6.88v6.86h6.86v3.08h-6.86v6.86c0,3.8,2.99,6.89,6.65,6.89
		h0.22V46.25z M144.29,23.14l14.82,0.18c-0.08,12.66-10.14,22.95-22.35,22.95c-0.27,0-0.53,0-0.79-0.02v-6.93h0.22
		c3.65,0,6.64-3.09,6.64-6.89v-6.86h-6.86v-3.08h6.86v-6.86c0-3.79-2.99-6.88-6.64-6.88h-0.22V0.02c0.25-0.01,0.52-0.02,0.79-0.02
		c7.59,0,14.84,4.07,18.85,10.66L144.29,23.14z"/>
	<path id="XMLID_2862_" class="st0" d="M165.47,90.42L165.47,90.42c-1.95,0-4.28,0-6.23,0c-2.1,0.23-1.93-1.44-1.93-2.76
		c0-5.51,0-11.02,0-16.53c0-2.03-1.34-3.92-3.62-4.52c-2.36,0.56-3.93,3.12-3.93,5.77c0,5.94,0,11.89,0,17.85c-2.06,0-4.13,0-6.19,0
		c0-6.1,0-12.18,0-18.27c0-2.41-1.56-4.86-3.94-5.47c-2.6,0.42-4.04,2.69-4.04,5.21c0,6.27,0,12.55,0,18.82c-2.28,0-4.55,0-6.82,0
		c0-7.69,0-15.37,0-23.02c-0.75-1.19-1.49-2.38-2.24-3.55c2.48-0.8,4.98-1.6,7.46-2.41c0.53,1.3,0.88,2.58,1.41,3.85
		c1.16-1.26,2.29-2.14,4.52-3.37c2.06-1.15,3.08-0.94,5.01,0.46c1.45,1.04,2.69,2.12,3.96,4.01c1.37-1.45,2.74-2.78,4.69-3.86
		c2.71-1.51,3.78-1.08,6.35,0.67c2.79,1.93,4.79,5.18,4.66,8.67L164,88.09l1.45,0.01C165.45,88.88,165.46,89.66,165.47,90.42
		 M96.87,64.3L96.87,64.3c2.7-1.05,5.39-1.49,8.09-2.53c0.21,0.88,0.43,1.76,0.63,2.64c0.69,1.63,1.24,2.02,2.38,0.83
		c1.05-0.78,2.35-1.63,3.41-2.4c4.67-3.17,11.26,3.4,12,7.76c-0.52,4.33-0.72,10.86-1.24,15.19c-0.05,1.5-0.14,2.43,1.39,2.29
		c0.05,0.72,0.11,1.43,0.15,2.15c-2.01,0.26-3.97,0.49-6.1,0.64c-2.66-0.11-2.26-3.34-1.99-5.27l0.83-13.93
		c-0.44-1.65-1.36-2.96-2.7-3.92c-1.95-1.25-3.54-1.32-5,0.45c-1.25,1.51-2.02,3.37-2.33,5.44c0,5.71,0,10.9,0,16.6
		c-2.27,0-4.56,0-6.83,0c0-6.75,0-13.51,0-20.26C99.6,67.98,98.64,65.62,96.87,64.3z M95.87,66.72L95.87,66.72
		c-2.05-2.31-4.11-3.64-6.29-4.2c-6.98-1.88-14.25,3.47-16.31,9.96c-1.66,8.4,0.31,12.66,3.28,15.62c4.25,4.2,12.63,3.81,17.29-0.34
		c1.63-1.44,2.43-3.97,2.82-5.92c-1.7-0.65-3.7-0.54-5.4-1.19c-0.07,1.01-0.01,1.97-0.12,2.88c-0.61,5.25-6.17,4.76-9.41,1.13
		c-2.2-2.47-2.13-4.61-2.48-6.87c3.15,0,7.49,0,10.64,0c1.79-1.05,2.39-1.75,4.17-2.79c-0.4-0.77-0.82-1.53-1.23-2.3
		c-0.93,0.46-1.84,0.59-2.77,1.05c-3.94,0-7.88,0-11.81,0c-0.31-5.92,4.53-9.31,9.46-6.56c1.4,0.79,2.64,1.82,3.56,3.33
		C92.82,69.25,94.35,67.99,95.87,66.72z M64.25,54.01L64.25,54.01l0.98,4.29v28.58l4.03-0.21l2.23-1.11
		c0.37,0.42,0.7,0.96,0.68,2.56l-3.18,2.24c-3.32,0.21-7.48-0.58-10.21,0.25V62.02L58,57.73l-2.24-0.61v-1.95L64.25,54.01z
		 M177.24,75.38L177.24,75.38v3.43c-1.3,0.4-2.5,1.17-2.91,2.43c-0.48,1.55-0.65,3.12,0.39,4.68c0.94,0.62,1.79,0.88,2.53,0.87v2.99
		c-1.55,0.67-2.95,0.99-4.44,1.02c-5.18-0.94-5.61-3.97-4.52-7.68C169.19,80.77,171.44,78.17,177.24,75.38z M177.24,61.99
		L177.24,61.99v8.11c-0.29-0.69-0.61-1.35-0.95-1.93c-1.15-1.46-2.7-0.78-4.34,0.02c-0.37-0.39-0.74-0.97-1.11-1.35
		c0.95-0.88,1.92-1.78,2.88-2.66C174.88,62.77,176.05,62.1,177.24,61.99z M48.93,72.25L48.93,72.25c1.13-2.14,2.28-4.27,3.42-6.41
		c-1.36-1.21-2.93-2.13-4.59-2.91c-3.44-1.65-5.5-1.67-9.11-0.02c-3.72,1.7-7.72,4.79-9.14,8.84c-1.8,5.09-1.54,11.1,2.06,15.1
		c1.51,1.68,3.18,2.97,5.15,3.57c3.49,0.98,6.99,0.6,10.47-0.7c-0.14,4.05-0.92,6.88-3.77,7.63c0.64,0.73,0.91,1.43,1.53,2.15
		c1.72-0.89,3.53-1.67,5-2.84c1.75-1.19,3.19-3.66,3.95-7.14c0-4.99,0-9.43,0-14.42c-3.03,0.17-6.07,0.36-9.11,0.55
		c0,0.94,0,1.89,0,2.85c0.46,0,1.41,0,1.87,0c0.37,1.96,0.64,5.17-0.57,6.87c-3.12,4.36-7.1,1.46-8.92-1.88
		c-2.02-3.75-2.12-6.82-1.65-11.32C36.54,62.68,44.6,64.7,48.93,72.25z M177.24,89.78L177.24,89.78v-2.99
		c2.25-0.03,3.49-2.56,3.28-5.03c-0.14-1.7-0.47-2.51-1.1-3.35c-0.67,0.03-1.44,0.16-2.18,0.4v-3.43c0.51-0.26,1.05-0.5,1.61-0.74
		c-0.5-1.64-1.03-3.19-1.61-4.55v-8.11c1-0.1,2.02,0.19,3.04,0.78c3.65,2.08,4.17,7.35,5.48,11.21c1.17,5.84,2.62,9.74,5.78,13.63
		c-1.78,1.5-3.54,3-5.3,4.5c-1.06-1.72-2.68-3.61-3.75-5.34C180.41,88.15,178.75,89.14,177.24,89.78z M205.46,62.25L205.46,62.25
		v5.07c-0.82-0.25-1.59-0.32-2.13-0.4c-1.3,1.32-1.58,3.16-2.46,5.48c0.01,2.78,0.06,5.57,0.1,8.36c1.54,0.44,3.1,0.42,4.5,0.02
		v6.58c-1.69-1.48-3.4-2.68-5.1-3.39c0,2.15,0,4.49,0,6.63c-1.95,0-4.16,0-6.12,0c0-6.78,0-13.75,0-20.53
		c-0.31-2.25-1.21-4.3-2.48-6.04l7.81-1.52l1.91,2.96c1.05-0.97,1.63-1.61,2.44-2.24C204.56,62.75,205.02,62.44,205.46,62.25z
		 M218.35,89.09L218.35,89.09v1.65c-4.45,1.59-8.36,0.69-11.04-1.65c-0.62-0.61-1.23-1.19-1.86-1.72v-6.58
		c3.38-1,5.73-4.36,4.05-9.21c-0.96-2.75-2.6-3.8-4.05-4.25v-5.07c0.76-0.28,1.45-0.16,2.84,0.23c3.99,1.11,6.8,2.88,8.15,7.11
		c1.79,5.5-1.25,11.09-6.56,11.95c1.34,2.04,2.34,4.77,4.2,6.03C215.3,88.39,216.59,89.11,218.35,89.09z M218.35,56.91L218.35,56.91
		v0.04l-0.02-0.03L218.35,56.91z M218.35,56.95L218.35,56.95l2.56,2.62v31.76h7.11v-9.33l4.96,5.33c1.97,2.12,3.42,4.57,6.56,4.51
		h5.54v-1.51l-2.19-1.22l-10.24-12.33c4.97-5.17,7.93-9.71,9.88-14.31c-2.37,0.17-4.74,0.23-7.1,0.41
		c-0.31,5.19-2.35,8.42-7.17,12.76l-0.58-15.9l-1.09-5.29l-8.23,2.45V56.95z M218.35,90.74v-1.65h0.03c0,0.55,0,1.09,0,1.64
		L218.35,90.74z"/>
</g>
</svg>
