<?xml version="1.0" encoding="utf-8"?>
<!-- Generator: Adobe Illustrator 23.1.0, SVG Export Plug-In . SVG Version: 6.00 Build 0)  -->
<svg version="1.1" id="Layer_1" xmlns="http://www.w3.org/2000/svg" xmlns:xlink="http://www.w3.org/1999/xlink" x="0px" y="0px"
	 viewBox="0 0 272.8 99.5" style="enable-background:new 0 0 272.8 99.5;" xml:space="preserve">
<style type="text/css">
	
		.st0{fill-rule:evenodd;clip-rule:evenodd;fill:#E20517;stroke:#FFFFFF;stroke-width:10;stroke-linecap:round;stroke-linejoin:round;stroke-miterlimit:10;}
	.st1{fill:#231915;stroke:#FFFFFF;stroke-width:10;stroke-linecap:round;stroke-linejoin:round;stroke-miterlimit:10;}
	.st2{fill-rule:evenodd;clip-rule:evenodd;fill:#E20517;}
	.st3{fill:#231915;}
</style>
<g id="XMLID_1391_">
	<g id="XMLID_2174_">
		<path id="XMLID_2276_" class="st0" d="M209.56,38.57v4.03l0.14-0.19l0.19-0.21l0.19-0.24l0.21-0.24l0.19-0.24l0.24-0.24l0.24-0.24
			l0.24-0.26l0.35-0.31l0.35-0.33l0.4-0.31l0.42-0.31l0.45-0.31l0.47-0.28l0.5-0.28l0.49-0.26l0.28-0.12l0.28-0.14l0.26-0.12
			l0.28-0.09l0.31-0.09l0.28-0.09l0.31-0.05l0.31-0.09l0.33-0.07l0.31-0.05l0.33-0.05l0.33-0.02l0.35-0.02l0.33-0.02l0.35-0.02h0.35
			l2.87-0.09v7.38h-2l-0.59,0.12l-0.56,0.09l-0.57,0.12l-0.52,0.14l-0.52,0.14l-0.5,0.19l-0.47,0.19l-0.45,0.19l-0.45,0.24
			l-0.4,0.21l-0.4,0.26l-0.38,0.28l-0.35,0.26l-0.33,0.31l-0.33,0.31l-0.31,0.33l-0.26,0.33l-0.28,0.35l-0.26,0.33l-0.24,0.35
			l-0.24,0.35l-0.24,0.35l-0.19,0.35l-0.19,0.35l-0.21,0.35l-0.17,0.38l-0.16,0.38l-0.14,0.35l-0.14,0.38l-0.14,0.38l-0.09,0.38
			l-0.09,0.38l-0.17,0.54l-0.09,0.49l-0.12,0.54l-0.09,0.49l-0.09,0.52l-0.05,0.49l-0.05,0.5l-0.02,0.49l-0.02,0.49l-0.02,0.45
			l-0.02,0.45v0.42v0.4l-0.02,0.4v0.35v0.35v18.81h-7.47V38.57H209.56z M183.07,49.41l-0.14-0.14l-0.14-0.16l-0.17-0.19l-0.16-0.19
			l-0.19-0.19l-0.19-0.21l-0.21-0.21l-0.24-0.24l-0.26-0.24l-0.26-0.24l-0.28-0.24l-0.33-0.21l-0.33-0.21l-0.35-0.21l-0.38-0.19
			l-0.4-0.19l-0.21-0.09l-0.21-0.09l-0.24-0.09l-0.26-0.07l-0.24-0.05l-0.26-0.07l-0.28-0.07l-0.28-0.05l-0.61-0.07l-0.66-0.07
			l-0.71-0.02l-0.75-0.02h-0.4l-0.4,0.02h-0.4l-0.4,0.05l-0.4,0.05l-0.4,0.05l-0.35,0.07l-0.4,0.05l-0.35,0.09l-0.35,0.09
			l-0.35,0.09l-0.35,0.09l-0.33,0.12l-0.35,0.12l-0.31,0.14l-0.33,0.14l-0.31,0.16l-0.33,0.14l-0.31,0.16l-0.28,0.19l-0.28,0.19
			l-0.31,0.21l-0.28,0.19l-0.26,0.21l-0.26,0.24l-0.26,0.24l-0.26,0.24l-0.26,0.26l-0.24,0.26l-0.24,0.26l-0.24,0.28l-0.21,0.28
			l-0.42,0.59l-0.4,0.61l-0.38,0.61l-0.33,0.61l-0.31,0.61l-0.31,0.64l-0.26,0.64l-0.21,0.64l-0.21,0.64l-0.16,0.68L160.97,57
			l-0.12,0.66l-0.09,0.71l-0.07,0.68l-0.05,0.68v0.71v0.07v0.07v0.07v0.07l0.02,0.64l0.05,0.61l0.07,0.59l0.09,0.61l0.14,0.59
			l0.17,0.59l0.16,0.57l0.21,0.59l0.24,0.57l0.26,0.54l0.28,0.57l0.33,0.54l0.33,0.54l0.38,0.54l0.38,0.52l0.42,0.52l0.21,0.26
			l0.24,0.24l0.24,0.24l0.24,0.24l0.24,0.21l0.26,0.24l0.26,0.21l0.26,0.19l0.28,0.19l0.26,0.16l0.28,0.19l0.31,0.16l0.28,0.14
			l0.31,0.16l0.31,0.14l0.31,0.12l0.33,0.14l0.33,0.09l0.33,0.12l0.35,0.12l0.33,0.07l0.35,0.09l0.35,0.07l0.38,0.07l0.38,0.07
			l0.35,0.05l0.4,0.05l0.4,0.05h0.4l0.4,0.05h0.4h0.4h0.87l0.82-0.05l0.78-0.07l0.75-0.07l0.73-0.12l0.66-0.14l0.33-0.09l0.33-0.09
			l0.31-0.09l0.31-0.09l0.28-0.12l0.28-0.12l0.26-0.09l0.28-0.14l0.26-0.12l0.24-0.14l0.24-0.14l0.21-0.16l0.24-0.14l0.21-0.19
			l0.21-0.16l0.19-0.16l0.16-0.19l0.19-0.19l0.16-0.21l0.14-0.19l0.31-0.42l0.31-0.45l0.28-0.47l0.28-0.5l0.28-0.49l0.26-0.52
			l0.26-0.54l0.26-0.59l0.24-0.57l0.24-0.64l0.24-0.61l0.24-0.66l0.21-0.66l0.21-0.71l0.19-0.71l0.21-0.73v-0.09l0.05-0.05
			l0.02-0.07l0.02-0.07l7.56,0.57v1.84v0.33l-0.02,0.38l-0.02,0.38l-0.02,0.35l-0.05,0.4l-0.07,0.35l-0.07,0.4l-0.07,0.38
			l-0.09,0.38l-0.09,0.38l-0.09,0.38l-0.14,0.4l-0.12,0.38l-0.14,0.38l-0.14,0.38l-0.19,0.4l-0.26,0.54l-0.28,0.54l-0.31,0.54
			l-0.33,0.54l-0.35,0.52l-0.4,0.52l-0.4,0.49l-0.4,0.52l-0.45,0.49l-0.47,0.5l-0.5,0.49l-0.52,0.5l-0.54,0.47l-0.56,0.47
			l-0.57,0.47l-0.61,0.45l-0.31,0.21l-0.31,0.24l-0.33,0.21l-0.33,0.19l-0.35,0.19l-0.33,0.21l-0.35,0.17l-0.35,0.19l-0.35,0.14
			l-0.35,0.16l-0.38,0.16l-0.38,0.14l-0.38,0.14l-0.38,0.14l-0.4,0.12l-0.4,0.12l-0.4,0.12l-0.4,0.09l-0.42,0.1l-0.42,0.09
			l-0.85,0.16l-0.87,0.12l-0.92,0.09l-0.92,0.07l-0.94,0.05l-0.99,0.02h-0.57l-0.57-0.05h-0.57l-0.57-0.05l-0.54-0.07l-0.57-0.05
			l-0.54-0.09l-0.54-0.07l-0.52-0.09l-0.52-0.12l-0.52-0.12l-0.52-0.12l-0.52-0.14l-0.49-0.16l-0.49-0.17l-0.5-0.16l-0.47-0.19
			l-0.47-0.21l-0.47-0.21l-0.47-0.24l-0.47-0.21l-0.45-0.26l-0.45-0.26l-0.42-0.26l-0.45-0.28l-0.42-0.28l-0.42-0.31l-0.42-0.33
			l-0.4-0.31l-0.4-0.35l-0.4-0.35l-0.4-0.33l-0.38-0.38l-0.38-0.38l-0.35-0.4l-0.35-0.38l-0.33-0.4l-0.33-0.4l-0.31-0.4l-0.31-0.42
			l-0.28-0.4l-0.26-0.45l-0.28-0.42L155,70.57l-0.24-0.45l-0.24-0.45l-0.21-0.47l-0.19-0.47l-0.21-0.47l-0.16-0.47l-0.16-0.47
			l-0.14-0.49l-0.14-0.52l-0.14-0.49l-0.09-0.5l-0.12-0.52l-0.09-0.54l-0.07-0.52l-0.07-0.52l-0.05-0.57l-0.05-0.54l-0.05-0.54V61
			v-0.57v-0.61v-0.61l0.05-0.59l0.02-0.59l0.05-0.57l0.05-0.57l0.07-0.57l0.07-0.54l0.09-0.54l0.09-0.54l0.12-0.52l0.12-0.52
			l0.12-0.52l0.14-0.49l0.17-0.47l0.14-0.47l0.19-0.47l0.16-0.47l0.19-0.45l0.21-0.45l0.21-0.42l0.24-0.42l0.21-0.42l0.24-0.4
			l0.26-0.4l0.26-0.38l0.28-0.38l0.28-0.38l0.28-0.35l0.31-0.35l0.33-0.35l0.31-0.33l0.68-0.64l0.66-0.64l0.68-0.57l0.68-0.57
			l0.68-0.52l0.71-0.5l0.71-0.47l0.73-0.42l0.71-0.4l0.73-0.38l0.75-0.35l0.73-0.31l0.75-0.28l0.78-0.26l0.75-0.24l0.78-0.19
			l0.33-0.07l0.33-0.07l0.33-0.07l0.33-0.05l0.31-0.05l0.31-0.05l0.31-0.05l0.31-0.02l0.31-0.02l0.28-0.05l0.31-0.02l0.31-0.02
			l0.33-0.02h0.28h0.31h0.31h0.9l0.85,0.05l0.45,0.05l0.4,0.02l0.42,0.05l0.42,0.07l0.4,0.07l0.4,0.07l0.4,0.07l0.4,0.09l0.4,0.09
			l0.4,0.12l0.38,0.09l0.38,0.12l0.4,0.14l0.35,0.12l0.4,0.14l0.35,0.17l0.35,0.14l0.38,0.19l0.35,0.16l0.35,0.19l0.33,0.19
			l0.35,0.19l0.33,0.21l0.35,0.21l0.33,0.19l0.31,0.26l0.33,0.21l0.33,0.24l0.61,0.49l0.64,0.52l0.59,0.54l0.57,0.54l0.59,0.54
			l0.54,0.56l0.54,0.59l0.52,0.59l0.49,0.61l0.49,0.61l0.49,0.64l0.47,0.64l0.45,0.66l0.42,0.68l0.42,0.68l0.4,0.68l-28.8,15.55
			L162.64,61L183.07,49.41z M120.71,59.66v-0.38l0.02-0.4l0.02-0.42l0.05-0.42l0.07-0.45l0.05-0.47l0.09-0.45l0.07-0.49l0.12-0.49
			l0.12-0.49l0.12-0.47l0.16-0.5l0.16-0.49l0.16-0.47l0.19-0.49l0.21-0.47l0.26-0.61l0.26-0.59l0.31-0.61l0.31-0.57l0.33-0.59
			l0.35-0.57l0.38-0.59l0.4-0.54l0.42-0.57l0.42-0.54l0.47-0.54l0.47-0.54l0.49-0.52l0.54-0.52l0.54-0.52l0.57-0.52l0.31-0.24
			l0.28-0.24l0.31-0.24l0.31-0.24l0.31-0.19l0.33-0.21l0.31-0.21l0.35-0.19l0.33-0.19l0.35-0.19l0.35-0.17l0.35-0.17l0.35-0.14
			l0.38-0.14l0.38-0.14l0.38-0.14l0.38-0.12l0.4-0.12l0.4-0.09l0.4-0.09l0.4-0.09l0.42-0.09l0.42-0.07l0.42-0.07l0.45-0.05
			l0.42-0.07l0.45-0.02l0.45-0.05l0.47-0.02h0.47l0.47-0.02h0.47l8.06-0.09v7.38h-6.03l-0.31,0.02l-0.31,0.02l-0.28,0.05l-0.31,0.02
			l-0.33,0.05l-0.33,0.02l-0.31,0.05l-0.33,0.05l-0.35,0.05l-0.33,0.07l-0.35,0.09l-0.33,0.09l-0.35,0.09l-0.35,0.09l-0.35,0.14
			l-0.38,0.14l-0.38,0.12l-0.4,0.16l-0.38,0.17l-0.38,0.17l-0.38,0.21l-0.38,0.21l-0.35,0.21l-0.38,0.24l-0.38,0.26l-0.35,0.26
			l-0.35,0.28l-0.35,0.28l-0.33,0.31l-0.33,0.33l-0.33,0.33l-0.35,0.33l-0.31,0.38l-0.31,0.38l-0.28,0.4l-0.26,0.42l-0.24,0.45
			l-0.21,0.47l-0.19,0.47l-0.19,0.52l-0.14,0.52l-0.14,0.54l-0.12,0.57l-0.07,0.57l-0.09,0.61l-0.05,0.61l-0.02,0.66l-0.02,0.64
			l0.02,0.54l0.02,0.54l0.07,0.54l0.07,0.54l0.12,0.57l0.12,0.57l0.12,0.56l0.14,0.57l0.14,0.4l0.14,0.4l0.16,0.4l0.19,0.38
			l0.19,0.4l0.21,0.38l0.21,0.38l0.24,0.38l0.24,0.38l0.28,0.35l0.26,0.38l0.28,0.35l0.31,0.35l0.31,0.35l0.35,0.33l0.33,0.33
			l0.35,0.33l0.35,0.31l0.4,0.28l0.42,0.28l0.42,0.24l0.45,0.21l0.45,0.19l0.5,0.19l0.52,0.16l0.49,0.12l0.54,0.12l0.57,0.09
			l0.57,0.07l0.59,0.05l0.61,0.05h0.64h0.09h0.19h0.09l0.07-0.02l0.07-0.02l0.05-0.05h0.09h0.19l0.19-0.05l0.16-0.02l0.14-0.02h6.03
			v7.31h-8.74l-0.97-0.07l-0.97-0.07l-0.92-0.12l-0.9-0.12l-0.45-0.09l-0.42-0.07l-0.42-0.09l-0.4-0.09l-0.42-0.12l-0.4-0.12
			l-0.4-0.12l-0.38-0.12l-0.4-0.14l-0.35-0.14l-0.38-0.17l-0.35-0.14l-0.35-0.17l-0.35-0.16l-0.35-0.19l-0.31-0.19l-0.35-0.19
			l-0.28-0.19l-0.33-0.21l-0.31-0.24l-0.28-0.19l-0.31-0.26l-0.28-0.21l-0.28-0.24l-0.52-0.49l-0.52-0.52l-0.49-0.5l-0.49-0.52
			l-0.45-0.52l-0.42-0.52l-0.42-0.52l-0.38-0.54l-0.38-0.52l-0.33-0.54l-0.33-0.57l-0.33-0.54l-0.28-0.54l-0.26-0.57l-0.26-0.59
			l-0.21-0.57l-0.16-0.49l-0.17-0.5l-0.12-0.5l-0.14-0.49l-0.12-0.47l-0.12-0.49l-0.09-0.47l-0.09-0.47l-0.07-0.45l-0.07-0.47
			l-0.07-0.45l-0.05-0.42l-0.02-0.45l-0.02-0.42l-0.02-0.42v-0.42V59.66z M111.4,79.93h-8.15V19.48h8.15V79.93z M82.04,49.41
			l-0.14-0.14l-0.14-0.16l-0.16-0.19l-0.19-0.19l-0.16-0.19l-0.19-0.21l-0.21-0.21l-0.24-0.24l-0.24-0.24l-0.28-0.24l-0.28-0.24
			l-0.33-0.21l-0.33-0.21l-0.35-0.21l-0.38-0.19l-0.4-0.19l-0.19-0.09l-0.24-0.09l-0.24-0.09l-0.24-0.07l-0.26-0.05l-0.26-0.07
			l-0.28-0.07l-0.28-0.05l-0.61-0.07l-0.66-0.07l-0.71-0.02l-0.73-0.02H72.9l-0.4,0.02h-0.42l-0.38,0.05l-0.4,0.05l-0.38,0.05
			l-0.4,0.07l-0.35,0.05l-0.38,0.09l-0.35,0.09l-0.35,0.09l-0.35,0.09l-0.33,0.12l-0.33,0.12l-0.35,0.14l-0.31,0.14l-0.33,0.16
			l-0.31,0.14l-0.31,0.16l-0.28,0.19l-0.31,0.19l-0.26,0.21l-0.31,0.19l-0.26,0.21l-0.26,0.24l-0.28,0.24l-0.24,0.24l-0.26,0.26
			l-0.24,0.26l-0.21,0.26l-0.26,0.28l-0.21,0.28l-0.42,0.59l-0.4,0.61l-0.35,0.61l-0.35,0.61l-0.31,0.61l-0.28,0.64l-0.26,0.64
			l-0.26,0.64l-0.19,0.64l-0.17,0.68L59.93,57l-0.12,0.66l-0.12,0.71l-0.05,0.68l-0.05,0.68v0.71v0.07v0.07v0.07v0.07v0.64
			l0.07,0.61l0.07,0.59l0.12,0.61l0.12,0.59l0.16,0.59l0.16,0.57l0.21,0.59l0.24,0.57l0.26,0.54l0.28,0.57l0.33,0.54l0.33,0.54
			l0.38,0.54l0.38,0.52l0.42,0.52l0.21,0.26l0.24,0.24l0.24,0.24l0.24,0.24l0.26,0.21l0.24,0.24l0.26,0.21l0.26,0.19l0.28,0.19
			l0.26,0.16l0.31,0.19l0.28,0.16l0.28,0.14l0.31,0.16l0.31,0.14l0.31,0.12l0.33,0.14l0.33,0.09l0.33,0.12l0.33,0.12l0.35,0.07
			l0.35,0.09l0.38,0.07l0.35,0.07l0.38,0.07l0.38,0.05l0.38,0.05l0.4,0.05h0.38l0.42,0.05h0.4h0.42h0.85l0.82-0.05l0.78-0.07
			l0.75-0.07l0.73-0.12l0.66-0.14l0.35-0.09l0.28-0.09l0.33-0.09l0.28-0.09l0.31-0.12l0.28-0.12l0.26-0.09l0.28-0.14l0.26-0.12
			l0.24-0.14l0.24-0.14l0.24-0.16l0.21-0.14l0.21-0.19l0.21-0.16l0.19-0.16l0.16-0.19l0.19-0.19l0.17-0.21l0.17-0.19l0.28-0.42
			l0.31-0.45l0.31-0.47l0.26-0.5l0.28-0.49l0.26-0.52l0.26-0.54l0.26-0.59l0.24-0.57l0.24-0.64l0.24-0.61l0.21-0.66l0.24-0.66
			l0.21-0.71l0.21-0.71l0.19-0.73v-0.09l0.05-0.05l0.02-0.07l0.02-0.07l7.57,0.57v1.84v0.33v0.38l-0.05,0.38l-0.02,0.35l-0.05,0.4
			l-0.07,0.35l-0.07,0.4l-0.07,0.38l-0.07,0.38l-0.12,0.38l-0.12,0.38l-0.12,0.4l-0.12,0.38l-0.14,0.38l-0.16,0.38l-0.17,0.4
			l-0.26,0.54l-0.28,0.54l-0.31,0.54l-0.33,0.54l-0.35,0.52l-0.38,0.52l-0.4,0.49l-0.42,0.52l-0.45,0.49l-0.47,0.5l-0.49,0.49
			l-0.52,0.5l-0.54,0.47l-0.54,0.47l-0.59,0.47l-0.61,0.45l-0.31,0.21l-0.31,0.24l-0.33,0.21l-0.33,0.19l-0.33,0.19l-0.35,0.21
			l-0.35,0.17l-0.35,0.19l-0.33,0.14l-0.38,0.16l-0.38,0.16l-0.35,0.14l-0.4,0.14l-0.38,0.14l-0.38,0.12l-0.4,0.12l-0.4,0.12
			l-0.42,0.09l-0.42,0.1l-0.4,0.09l-0.87,0.16l-0.87,0.12l-0.9,0.09l-0.94,0.07l-0.94,0.05l-0.97,0.02h-0.59l-0.57-0.05H71.6
			l-0.57-0.05l-0.57-0.07l-0.54-0.05l-0.54-0.09l-0.52-0.07l-0.54-0.09l-0.52-0.12l-0.54-0.12l-0.5-0.12l-0.52-0.14l-0.5-0.16
			l-0.49-0.17l-0.49-0.16l-0.47-0.19l-0.49-0.21l-0.45-0.21l-0.47-0.24l-0.47-0.21l-0.45-0.26l-0.45-0.26l-0.42-0.26l-0.45-0.28
			l-0.42-0.28l-0.42-0.31l-0.42-0.33l-0.4-0.31l-0.4-0.35l-0.4-0.35l-0.4-0.33l-0.38-0.38l-0.38-0.38l-0.35-0.4l-0.35-0.38
			l-0.33-0.4l-0.31-0.4l-0.33-0.4l-0.28-0.42l-0.31-0.4l-0.26-0.45l-0.28-0.42l-0.24-0.42l-0.24-0.45l-0.24-0.45l-0.19-0.47
			l-0.21-0.47l-0.19-0.47l-0.19-0.47l-0.16-0.47l-0.14-0.49l-0.14-0.52l-0.12-0.49l-0.14-0.5l-0.09-0.52l-0.09-0.54l-0.07-0.52
			l-0.07-0.52l-0.05-0.57l-0.05-0.54l-0.02-0.54L51.54,61v-0.57v-0.61l0.02-0.61l0.02-0.59l0.02-0.59l0.05-0.57l0.05-0.57l0.07-0.57
			l0.07-0.54l0.12-0.54l0.09-0.54l0.09-0.52l0.12-0.52l0.14-0.52l0.14-0.49l0.14-0.47l0.17-0.47l0.17-0.47l0.19-0.47l0.19-0.45
			l0.19-0.45l0.21-0.42l0.21-0.42l0.24-0.42l0.26-0.4l0.24-0.4l0.26-0.38l0.28-0.38l0.28-0.38l0.28-0.35l0.31-0.35l0.33-0.35
			l0.31-0.33l0.66-0.64l0.68-0.64l0.68-0.57l0.68-0.57l0.71-0.52l0.68-0.5l0.71-0.47l0.71-0.42l0.75-0.4l0.71-0.38l0.73-0.35
			l0.75-0.31l0.75-0.28l0.75-0.26l0.78-0.24l0.78-0.19l0.33-0.07l0.33-0.07l0.33-0.07l0.31-0.05l0.33-0.05l0.31-0.05l0.31-0.05
			l0.31-0.02l0.28-0.02l0.31-0.05l0.31-0.02l0.31-0.02L72.38,38h0.33h0.31h0.31h0.87l0.87,0.05l0.42,0.05l0.42,0.02l0.4,0.05
			l0.42,0.07l0.42,0.07l0.4,0.07l0.4,0.07l0.4,0.09l0.4,0.09l0.38,0.12l0.38,0.09l0.4,0.12l0.38,0.14l0.38,0.12l0.35,0.14l0.38,0.17
			l0.35,0.14l0.35,0.19l0.35,0.16l0.35,0.19l0.35,0.19l0.35,0.19l0.33,0.21l0.35,0.21l0.31,0.19l0.35,0.26l0.31,0.21l0.33,0.24
			l0.61,0.49l0.61,0.52l0.61,0.54l0.57,0.54l0.59,0.54l0.54,0.56l0.54,0.59l0.52,0.59l0.52,0.61l0.49,0.61l0.47,0.64l0.47,0.64
			l0.45,0.66l0.42,0.68l0.42,0.68l0.4,0.68l-28.8,15.55L61.61,61L82.04,49.41z M5,41.91v-0.68l0.02-0.68l0.02-0.68l0.05-0.66
			l0.02-0.66l0.07-0.64l0.07-0.64l0.05-0.64l0.09-0.61l0.09-0.61l0.12-0.59l0.09-0.57l0.14-0.59l0.12-0.57l0.14-0.54l0.16-0.54
			l0.16-0.54l0.17-0.52l0.19-0.52L7,29.94l0.19-0.5l0.21-0.49l0.24-0.45l0.21-0.47l0.26-0.45l0.24-0.45l0.28-0.42l0.28-0.42
			l0.26-0.42l0.31-0.4l0.31-0.38l0.31-0.38l0.31-0.38l0.35-0.35l0.33-0.35l0.35-0.33l0.38-0.33l0.35-0.31l0.38-0.31l0.4-0.31
			l0.4-0.28l0.42-0.26l0.42-0.28l0.45-0.24l0.42-0.24l0.47-0.24l0.47-0.21l0.45-0.21l0.5-0.19l0.49-0.19l0.52-0.19l0.5-0.16
			L19,19.22l0.52-0.16l0.54-0.12l0.57-0.12l0.57-0.12l0.56-0.09l0.59-0.09l0.61-0.07l0.59-0.09l0.64-0.05l0.61-0.05l0.64-0.02h0.45
			l0.45,0.02l0.45,0.02l0.42,0.02l0.45,0.05l0.42,0.07l0.42,0.05l0.42,0.07l0.42,0.07l0.42,0.09l0.42,0.12l0.4,0.09l0.4,0.12
			l0.4,0.12l0.42,0.16l0.38,0.14l0.4,0.17l0.4,0.16l0.4,0.17l0.38,0.19l0.38,0.19l0.4,0.21l0.35,0.21l0.38,0.24l0.38,0.21l0.35,0.26
			l0.38,0.26l0.35,0.26l0.35,0.28l0.35,0.26l0.35,0.31l0.35,0.28l0.33,0.33l0.33,0.31l0.33,0.31l0.31,0.31l0.28,0.33l0.28,0.33
			l0.28,0.33l0.26,0.33L40.82,26l0.24,0.35l0.24,0.33l0.21,0.35l0.21,0.33l0.19,0.35l0.21,0.35l0.17,0.38l0.16,0.35l0.16,0.35
			l0.14,0.38l0.14,0.38l0.12,0.38l0.12,0.35l0.09,0.4l0.09,0.38l0.09,0.38l0.05,0.4l0.07,0.4l0.05,0.4l0.02,0.4l0.05,0.4v0.4v0.42
			v1.06v0.52v0.52l-0.05,0.52l-0.05,0.52l-0.05,0.49l-0.05,0.52l-0.09,0.5l-0.09,0.49l-0.12,0.5l-0.09,0.47l-0.14,0.47l-0.14,0.49
			l-0.16,0.45l-0.16,0.49l-0.16,0.45l-0.19,0.47l-0.21,0.45l-0.24,0.42l-0.24,0.42l-0.26,0.4l-0.26,0.38l-0.28,0.38l-0.31,0.35
			L40,46.7L39.67,47l-0.35,0.31l-0.38,0.31l-0.38,0.28l-0.4,0.26l-0.42,0.24l-0.42,0.21l-0.45,0.21l0.45,0.21l0.45,0.21l0.4,0.21
			l0.42,0.26l0.4,0.26l0.38,0.26l0.38,0.28l0.35,0.28l0.35,0.31l0.33,0.31l0.33,0.35l0.31,0.35l0.31,0.35L42,52.85l0.26,0.38
			l0.26,0.4l0.24,0.42l0.24,0.4l0.21,0.42l0.21,0.45l0.16,0.45l0.17,0.45l0.16,0.45l0.12,0.47l0.12,0.47l0.12,0.47l0.07,0.47
			l0.07,0.52l0.05,0.49l0.05,0.49l0.02,0.52v0.54v18.81h-8.34V62.37l-0.02-0.57l-0.02-0.54l-0.07-0.54l-0.07-0.5l-0.12-0.49
			l-0.14-0.47l-0.16-0.45l-0.17-0.45l-0.21-0.4l-0.24-0.4l-0.26-0.35l-0.28-0.35l-0.31-0.33l-0.35-0.31l-0.35-0.31l-0.38-0.26
			l-0.42-0.26l-0.4-0.24l-0.45-0.24l-0.45-0.21l-0.45-0.19l-0.47-0.16l-0.49-0.14l-0.52-0.14l-0.52-0.14l-0.54-0.12l-0.54-0.07
			l-0.57-0.07l-0.59-0.07L26,53.55l-0.59-0.02h-0.66h-8.34v-7.57h7.02l0.05,0.05l0.07,0.02l0.07,0.02l0.09,0.05l0.19,0.02l0.21,0.02
			h0.09l0.05,0.02l0.05,0.02l0.09,0.02l0.09,0.02h0.17h0.09h0.21h0.19h0.17h0.17l0.16-0.02l0.19-0.02l0.19-0.02l0.19-0.02l0.42-0.07
			l0.42-0.09l0.42-0.09l0.42-0.12l0.4-0.14l0.4-0.14l0.42-0.19l0.4-0.16l0.38-0.21l0.4-0.21l0.4-0.24l0.38-0.24l0.38-0.28l0.38-0.28
			l0.38-0.28l0.38-0.33l0.35-0.33l0.31-0.33l0.33-0.38l0.28-0.38l0.26-0.4l0.24-0.42l0.24-0.42l0.19-0.45l0.16-0.47l0.14-0.47
			l0.12-0.49L35.33,38l0.07-0.54l0.05-0.54l0.05-0.57v-0.57v-0.57l-0.02-0.52l-0.05-0.52l-0.07-0.5l-0.09-0.47l-0.09-0.47
			l-0.14-0.45l-0.14-0.42l-0.19-0.4l-0.19-0.38l-0.19-0.38l-0.24-0.35l-0.24-0.33l-0.28-0.31l-0.28-0.28l-0.31-0.28l-0.33-0.26
			l-0.31-0.24l-0.33-0.24l-0.33-0.24l-0.33-0.19L31,27.8l-0.33-0.19l-0.35-0.16l-0.33-0.17l-0.35-0.16L29.27,27l-0.38-0.14
			l-0.35-0.09l-0.35-0.12l-0.38-0.09l-0.35-0.07l-0.35-0.05l-0.33-0.02l-0.33-0.05l-0.33-0.02l-0.35-0.02h-0.33l-0.33-0.02h-0.35
			l-0.57,0.02h-0.57l-0.54,0.05l-0.52,0.07l-0.52,0.07l-0.5,0.12l-0.49,0.09l-0.45,0.14l-0.45,0.17l-0.42,0.14l-0.4,0.19l-0.4,0.21
			l-0.38,0.21l-0.35,0.24l-0.35,0.26l-0.33,0.28l-0.31,0.26l-0.31,0.31l-0.28,0.28l-0.26,0.31l-0.28,0.31l-0.26,0.31l-0.24,0.28
			l-0.24,0.33l-0.21,0.31l-0.21,0.33l-0.19,0.33l-0.19,0.31l-0.16,0.35l-0.16,0.33l-0.16,0.35l-0.12,0.33l-0.12,0.28l-0.12,0.31
			l-0.09,0.28l-0.09,0.28l-0.07,0.28l-0.07,0.31L13.3,35.6l-0.05,0.28l-0.09,0.57l-0.05,0.54l-0.05,0.52V38v41.93H5V41.91z"/>
		<path id="XMLID_2175_" class="st1" d="M245.36,71.98v0.28c0.02,0.12,0.02,0.21,0.02,0.28c0,0.71-0.07,1.39-0.19,2
			c-0.14,0.64-0.33,1.2-0.61,1.77c-0.78,1.58-1.86,2.78-3.23,3.65c-1.39,0.85-2.92,1.3-4.64,1.3c-1.27,0-2.45-0.26-3.54-0.73
			c-1.08-0.49-2.05-1.2-2.92-2.17c-0.71-0.8-1.25-1.72-1.63-2.73c-0.38-1.01-0.57-2.1-0.57-3.23c0-1.18,0.21-2.29,0.68-3.35
			c0.45-1.04,1.11-2,2-2.87c0.83-0.82,1.74-1.41,2.76-1.84c1.04-0.38,2.17-0.59,3.39-0.59c1.81,0,3.39,0.45,4.71,1.32
			c1.32,0.9,2.33,2.19,3.04,3.89h-4.01c-0.47-0.61-1.06-1.06-1.72-1.37s-1.39-0.45-2.19-0.45c-1.46,0-2.66,0.52-3.68,1.56
			c-0.99,1.04-1.51,2.31-1.51,3.79c0,1.51,0.52,2.78,1.53,3.82c1.01,1.04,2.26,1.55,3.75,1.55c1.01,0,1.96-0.28,2.78-0.82
			c0.85-0.57,1.46-1.32,1.86-2.26h-6.62v-2.8H245.36z M256.51,80.92h-9.07V64.09h9.07v2.97h-5.82v3.84h5.82v2.9h-5.82v4.17h5.82
			V80.92z M267.8,80.92h-8.53V64.09h3.25v13.88h5.28V80.92z"/>
	</g>
	<g id="XMLID_1393_">
		<path id="XMLID_1406_" class="st2" d="M209.56,38.57v4.03l0.14-0.19l0.19-0.21l0.19-0.24l0.21-0.24l0.19-0.24l0.24-0.24l0.24-0.24
			l0.24-0.26l0.35-0.31l0.35-0.33l0.4-0.31l0.42-0.31l0.45-0.31l0.47-0.28l0.5-0.28l0.49-0.26l0.28-0.12l0.28-0.14l0.26-0.12
			l0.28-0.09l0.31-0.09l0.28-0.09l0.31-0.05l0.31-0.09l0.33-0.07l0.31-0.05l0.33-0.05l0.33-0.02l0.35-0.02l0.33-0.02l0.35-0.02h0.35
			l2.87-0.09v7.38h-2l-0.59,0.12l-0.56,0.09l-0.57,0.12l-0.52,0.14l-0.52,0.14l-0.5,0.19l-0.47,0.19l-0.45,0.19l-0.45,0.24
			l-0.4,0.21l-0.4,0.26l-0.38,0.28l-0.35,0.26l-0.33,0.31l-0.33,0.31l-0.31,0.33l-0.26,0.33l-0.28,0.35l-0.26,0.33l-0.24,0.35
			l-0.24,0.35l-0.24,0.35l-0.19,0.35l-0.19,0.35l-0.21,0.35l-0.17,0.38l-0.16,0.38l-0.14,0.35l-0.14,0.38l-0.14,0.38l-0.09,0.38
			l-0.09,0.38l-0.17,0.54l-0.09,0.49l-0.12,0.54l-0.09,0.49l-0.09,0.52l-0.05,0.49l-0.05,0.5l-0.02,0.49l-0.02,0.49l-0.02,0.45
			l-0.02,0.45v0.42v0.4l-0.02,0.4v0.35v0.35v18.81h-7.47V38.57H209.56z M183.07,49.41l-0.14-0.14l-0.14-0.16l-0.17-0.19l-0.16-0.19
			l-0.19-0.19l-0.19-0.21l-0.21-0.21l-0.24-0.24l-0.26-0.24l-0.26-0.24l-0.28-0.24l-0.33-0.21l-0.33-0.21l-0.35-0.21l-0.38-0.19
			l-0.4-0.19l-0.21-0.09l-0.21-0.09l-0.24-0.09l-0.26-0.07l-0.24-0.05l-0.26-0.07l-0.28-0.07l-0.28-0.05l-0.61-0.07l-0.66-0.07
			l-0.71-0.02l-0.75-0.02h-0.4l-0.4,0.02h-0.4l-0.4,0.05l-0.4,0.05l-0.4,0.05l-0.35,0.07l-0.4,0.05l-0.35,0.09l-0.35,0.09
			l-0.35,0.09l-0.35,0.09l-0.33,0.12l-0.35,0.12l-0.31,0.14l-0.33,0.14l-0.31,0.16l-0.33,0.14l-0.31,0.16l-0.28,0.19l-0.28,0.19
			l-0.31,0.21l-0.28,0.19l-0.26,0.21l-0.26,0.24l-0.26,0.24l-0.26,0.24l-0.26,0.26l-0.24,0.26l-0.24,0.26l-0.24,0.28l-0.21,0.28
			l-0.42,0.59l-0.4,0.61l-0.38,0.61l-0.33,0.61l-0.31,0.61l-0.31,0.64l-0.26,0.64l-0.21,0.64l-0.21,0.64l-0.16,0.68L160.97,57
			l-0.12,0.66l-0.09,0.71l-0.07,0.68l-0.05,0.68v0.71v0.07v0.07v0.07v0.07l0.02,0.64l0.05,0.61l0.07,0.59l0.09,0.61l0.14,0.59
			l0.17,0.59l0.16,0.57l0.21,0.59l0.24,0.57l0.26,0.54l0.28,0.57l0.33,0.54l0.33,0.54l0.38,0.54l0.38,0.52l0.42,0.52l0.21,0.26
			l0.24,0.24l0.24,0.24l0.24,0.24l0.24,0.21l0.26,0.24l0.26,0.21l0.26,0.19l0.28,0.19l0.26,0.16l0.28,0.19l0.31,0.16l0.28,0.14
			l0.31,0.16l0.31,0.14l0.31,0.12l0.33,0.14l0.33,0.09l0.33,0.12l0.35,0.12l0.33,0.07l0.35,0.09l0.35,0.07l0.38,0.07l0.38,0.07
			l0.35,0.05l0.4,0.05l0.4,0.05h0.4l0.4,0.05h0.4h0.4h0.87l0.82-0.05l0.78-0.07l0.75-0.07l0.73-0.12l0.66-0.14l0.33-0.09l0.33-0.09
			l0.31-0.09l0.31-0.09l0.28-0.12l0.28-0.12l0.26-0.09l0.28-0.14l0.26-0.12l0.24-0.14l0.24-0.14l0.21-0.16l0.24-0.14l0.21-0.19
			l0.21-0.16l0.19-0.16l0.16-0.19l0.19-0.19l0.16-0.21l0.14-0.19l0.31-0.42l0.31-0.45l0.28-0.47l0.28-0.5l0.28-0.49l0.26-0.52
			l0.26-0.54l0.26-0.59l0.24-0.57l0.24-0.64l0.24-0.61l0.24-0.66l0.21-0.66l0.21-0.71l0.19-0.71l0.21-0.73v-0.09l0.05-0.05
			l0.02-0.07l0.02-0.07l7.56,0.57v1.84v0.33l-0.02,0.38l-0.02,0.38l-0.02,0.35l-0.05,0.4l-0.07,0.35l-0.07,0.4l-0.07,0.38
			l-0.09,0.38l-0.09,0.38l-0.09,0.38l-0.14,0.4l-0.12,0.38l-0.14,0.38l-0.14,0.38l-0.19,0.4l-0.26,0.54l-0.28,0.54l-0.31,0.54
			l-0.33,0.54l-0.35,0.52l-0.4,0.52l-0.4,0.49l-0.4,0.52l-0.45,0.49l-0.47,0.5l-0.5,0.49l-0.52,0.5l-0.54,0.47l-0.56,0.47
			l-0.57,0.47l-0.61,0.45l-0.31,0.21l-0.31,0.24l-0.33,0.21l-0.33,0.19l-0.35,0.19l-0.33,0.21l-0.35,0.17l-0.35,0.19l-0.35,0.14
			l-0.35,0.16l-0.38,0.16l-0.38,0.14l-0.38,0.14l-0.38,0.14l-0.4,0.12l-0.4,0.12l-0.4,0.12l-0.4,0.09l-0.42,0.1l-0.42,0.09
			l-0.85,0.16l-0.87,0.12l-0.92,0.09l-0.92,0.07l-0.94,0.05l-0.99,0.02h-0.57l-0.57-0.05h-0.57l-0.57-0.05l-0.54-0.07l-0.57-0.05
			l-0.54-0.09l-0.54-0.07l-0.52-0.09l-0.52-0.12l-0.52-0.12l-0.52-0.12l-0.52-0.14l-0.49-0.16l-0.49-0.17l-0.5-0.16l-0.47-0.19
			l-0.47-0.21l-0.47-0.21l-0.47-0.24l-0.47-0.21l-0.45-0.26l-0.45-0.26l-0.42-0.26l-0.45-0.28l-0.42-0.28l-0.42-0.31l-0.42-0.33
			l-0.4-0.31l-0.4-0.35l-0.4-0.35l-0.4-0.33l-0.38-0.38l-0.38-0.38l-0.35-0.4l-0.35-0.38l-0.33-0.4l-0.33-0.4l-0.31-0.4l-0.31-0.42
			l-0.28-0.4l-0.26-0.45l-0.28-0.42L155,70.57l-0.24-0.45l-0.24-0.45l-0.21-0.47l-0.19-0.47l-0.21-0.47l-0.16-0.47l-0.16-0.47
			l-0.14-0.49l-0.14-0.52l-0.14-0.49l-0.09-0.5l-0.12-0.52l-0.09-0.54l-0.07-0.52l-0.07-0.52l-0.05-0.57l-0.05-0.54l-0.05-0.54V61
			v-0.57v-0.61v-0.61l0.05-0.59l0.02-0.59l0.05-0.57l0.05-0.57l0.07-0.57l0.07-0.54l0.09-0.54l0.09-0.54l0.12-0.52l0.12-0.52
			l0.12-0.52l0.14-0.49l0.17-0.47l0.14-0.47l0.19-0.47l0.16-0.47l0.19-0.45l0.21-0.45l0.21-0.42l0.24-0.42l0.21-0.42l0.24-0.4
			l0.26-0.4l0.26-0.38l0.28-0.38l0.28-0.38l0.28-0.35l0.31-0.35l0.33-0.35l0.31-0.33l0.68-0.64l0.66-0.64l0.68-0.57l0.68-0.57
			l0.68-0.52l0.71-0.5l0.71-0.47l0.73-0.42l0.71-0.4l0.73-0.38l0.75-0.35l0.73-0.31l0.75-0.28l0.78-0.26l0.75-0.24l0.78-0.19
			l0.33-0.07l0.33-0.07l0.33-0.07l0.33-0.05l0.31-0.05l0.31-0.05l0.31-0.05l0.31-0.02l0.31-0.02l0.28-0.05l0.31-0.02l0.31-0.02
			l0.33-0.02h0.28h0.31h0.31h0.9l0.85,0.05l0.45,0.05l0.4,0.02l0.42,0.05l0.42,0.07l0.4,0.07l0.4,0.07l0.4,0.07l0.4,0.09l0.4,0.09
			l0.4,0.12l0.38,0.09l0.38,0.12l0.4,0.14l0.35,0.12l0.4,0.14l0.35,0.17l0.35,0.14l0.38,0.19l0.35,0.16l0.35,0.19l0.33,0.19
			l0.35,0.19l0.33,0.21l0.35,0.21l0.33,0.19l0.31,0.26l0.33,0.21l0.33,0.24l0.61,0.49l0.64,0.52l0.59,0.54l0.57,0.54l0.59,0.54
			l0.54,0.56l0.54,0.59l0.52,0.59l0.49,0.61l0.49,0.61l0.49,0.64l0.47,0.64l0.45,0.66l0.42,0.68l0.42,0.68l0.4,0.68l-28.8,15.55
			L162.64,61L183.07,49.41z M120.71,59.66v-0.38l0.02-0.4l0.02-0.42l0.05-0.42l0.07-0.45l0.05-0.47l0.09-0.45l0.07-0.49l0.12-0.49
			l0.12-0.49l0.12-0.47l0.16-0.5l0.16-0.49l0.16-0.47l0.19-0.49l0.21-0.47l0.26-0.61l0.26-0.59l0.31-0.61l0.31-0.57l0.33-0.59
			l0.35-0.57l0.38-0.59l0.4-0.54l0.42-0.57l0.42-0.54l0.47-0.54l0.47-0.54l0.49-0.52l0.54-0.52l0.54-0.52l0.57-0.52l0.31-0.24
			l0.28-0.24l0.31-0.24l0.31-0.24l0.31-0.19l0.33-0.21l0.31-0.21l0.35-0.19l0.33-0.19l0.35-0.19l0.35-0.17l0.35-0.17l0.35-0.14
			l0.38-0.14l0.38-0.14l0.38-0.14l0.38-0.12l0.4-0.12l0.4-0.09l0.4-0.09l0.4-0.09l0.42-0.09l0.42-0.07l0.42-0.07l0.45-0.05
			l0.42-0.07l0.45-0.02l0.45-0.05l0.47-0.02h0.47l0.47-0.02h0.47l8.06-0.09v7.38h-6.03l-0.31,0.02l-0.31,0.02l-0.28,0.05l-0.31,0.02
			l-0.33,0.05l-0.33,0.02l-0.31,0.05l-0.33,0.05l-0.35,0.05l-0.33,0.07l-0.35,0.09l-0.33,0.09l-0.35,0.09l-0.35,0.09l-0.35,0.14
			l-0.38,0.14l-0.38,0.12l-0.4,0.16l-0.38,0.17l-0.38,0.17l-0.38,0.21l-0.38,0.21l-0.35,0.21l-0.38,0.24l-0.38,0.26l-0.35,0.26
			l-0.35,0.28l-0.35,0.28l-0.33,0.31l-0.33,0.33l-0.33,0.33l-0.35,0.33l-0.31,0.38l-0.31,0.38l-0.28,0.4l-0.26,0.42l-0.24,0.45
			l-0.21,0.47l-0.19,0.47l-0.19,0.52l-0.14,0.52l-0.14,0.54l-0.12,0.57l-0.07,0.57l-0.09,0.61l-0.05,0.61l-0.02,0.66l-0.02,0.64
			l0.02,0.54l0.02,0.54l0.07,0.54l0.07,0.54l0.12,0.57l0.12,0.57l0.12,0.56l0.14,0.57l0.14,0.4l0.14,0.4l0.16,0.4l0.19,0.38
			l0.19,0.4l0.21,0.38l0.21,0.38l0.24,0.38l0.24,0.38l0.28,0.35l0.26,0.38l0.28,0.35l0.31,0.35l0.31,0.35l0.35,0.33l0.33,0.33
			l0.35,0.33l0.35,0.31l0.4,0.28l0.42,0.28l0.42,0.24l0.45,0.21l0.45,0.19l0.5,0.19l0.52,0.16l0.49,0.12l0.54,0.12l0.57,0.09
			l0.57,0.07l0.59,0.05l0.61,0.05h0.64h0.09h0.19h0.09l0.07-0.02l0.07-0.02l0.05-0.05h0.09h0.19l0.19-0.05l0.16-0.02l0.14-0.02h6.03
			v7.31h-8.74l-0.97-0.07l-0.97-0.07l-0.92-0.12l-0.9-0.12l-0.45-0.09l-0.42-0.07l-0.42-0.09l-0.4-0.09l-0.42-0.12l-0.4-0.12
			l-0.4-0.12l-0.38-0.12l-0.4-0.14l-0.35-0.14l-0.38-0.17l-0.35-0.14l-0.35-0.17l-0.35-0.16l-0.35-0.19l-0.31-0.19l-0.35-0.19
			l-0.28-0.19l-0.33-0.21l-0.31-0.24l-0.28-0.19l-0.31-0.26l-0.28-0.21l-0.28-0.24l-0.52-0.49l-0.52-0.52l-0.49-0.5l-0.49-0.52
			l-0.45-0.52l-0.42-0.52l-0.42-0.52l-0.38-0.54l-0.38-0.52l-0.33-0.54l-0.33-0.57l-0.33-0.54l-0.28-0.54l-0.26-0.57l-0.26-0.59
			l-0.21-0.57l-0.16-0.49l-0.17-0.5l-0.12-0.5l-0.14-0.49l-0.12-0.47l-0.12-0.49l-0.09-0.47l-0.09-0.47l-0.07-0.45l-0.07-0.47
			l-0.07-0.45l-0.05-0.42l-0.02-0.45l-0.02-0.42l-0.02-0.42v-0.42V59.66z M111.4,79.93h-8.15V19.48h8.15V79.93z M82.04,49.41
			l-0.14-0.14l-0.14-0.16l-0.16-0.19l-0.19-0.19l-0.16-0.19l-0.19-0.21l-0.21-0.21l-0.24-0.24l-0.24-0.24l-0.28-0.24l-0.28-0.24
			l-0.33-0.21l-0.33-0.21l-0.35-0.21l-0.38-0.19l-0.4-0.19l-0.19-0.09l-0.24-0.09l-0.24-0.09l-0.24-0.07l-0.26-0.05l-0.26-0.07
			l-0.28-0.07l-0.28-0.05l-0.61-0.07l-0.66-0.07l-0.71-0.02l-0.73-0.02H72.9l-0.4,0.02h-0.42l-0.38,0.05l-0.4,0.05l-0.38,0.05
			l-0.4,0.07l-0.35,0.05l-0.38,0.09l-0.35,0.09l-0.35,0.09l-0.35,0.09l-0.33,0.12l-0.33,0.12l-0.35,0.14l-0.31,0.14l-0.33,0.16
			l-0.31,0.14l-0.31,0.16l-0.28,0.19l-0.31,0.19l-0.26,0.21l-0.31,0.19l-0.26,0.21l-0.26,0.24l-0.28,0.24l-0.24,0.24l-0.26,0.26
			l-0.24,0.26l-0.21,0.26l-0.26,0.28l-0.21,0.28l-0.42,0.59l-0.4,0.61l-0.35,0.61l-0.35,0.61l-0.31,0.61l-0.28,0.64l-0.26,0.64
			l-0.26,0.64l-0.19,0.64l-0.17,0.68L59.93,57l-0.12,0.66l-0.12,0.71l-0.05,0.68l-0.05,0.68v0.71v0.07v0.07v0.07v0.07v0.64
			l0.07,0.61l0.07,0.59l0.12,0.61l0.12,0.59l0.16,0.59l0.16,0.57l0.21,0.59l0.24,0.57l0.26,0.54l0.28,0.57l0.33,0.54l0.33,0.54
			l0.38,0.54l0.38,0.52l0.42,0.52l0.21,0.26l0.24,0.24l0.24,0.24l0.24,0.24l0.26,0.21l0.24,0.24l0.26,0.21l0.26,0.19l0.28,0.19
			l0.26,0.16l0.31,0.19l0.28,0.16l0.28,0.14l0.31,0.16l0.31,0.14l0.31,0.12l0.33,0.14l0.33,0.09l0.33,0.12l0.33,0.12l0.35,0.07
			l0.35,0.09l0.38,0.07l0.35,0.07l0.38,0.07l0.38,0.05l0.38,0.05l0.4,0.05h0.38l0.42,0.05h0.4h0.42h0.85l0.82-0.05l0.78-0.07
			l0.75-0.07l0.73-0.12l0.66-0.14l0.35-0.09l0.28-0.09l0.33-0.09l0.28-0.09l0.31-0.12l0.28-0.12l0.26-0.09l0.28-0.14l0.26-0.12
			l0.24-0.14l0.24-0.14l0.24-0.16l0.21-0.14l0.21-0.19l0.21-0.16l0.19-0.16l0.16-0.19l0.19-0.19l0.17-0.21l0.17-0.19l0.28-0.42
			l0.31-0.45l0.31-0.47l0.26-0.5l0.28-0.49l0.26-0.52l0.26-0.54l0.26-0.59l0.24-0.57l0.24-0.64l0.24-0.61l0.21-0.66l0.24-0.66
			l0.21-0.71l0.21-0.71l0.19-0.73v-0.09l0.05-0.05l0.02-0.07l0.02-0.07l7.57,0.57v1.84v0.33v0.38l-0.05,0.38l-0.02,0.35l-0.05,0.4
			l-0.07,0.35l-0.07,0.4l-0.07,0.38l-0.07,0.38l-0.12,0.38l-0.12,0.38l-0.12,0.4l-0.12,0.38l-0.14,0.38l-0.16,0.38l-0.17,0.4
			l-0.26,0.54l-0.28,0.54l-0.31,0.54l-0.33,0.54l-0.35,0.52l-0.38,0.52l-0.4,0.49l-0.42,0.52l-0.45,0.49l-0.47,0.5l-0.49,0.49
			l-0.52,0.5l-0.54,0.47l-0.54,0.47l-0.59,0.47l-0.61,0.45l-0.31,0.21l-0.31,0.24l-0.33,0.21l-0.33,0.19l-0.33,0.19l-0.35,0.21
			l-0.35,0.17l-0.35,0.19l-0.33,0.14l-0.38,0.16l-0.38,0.16l-0.35,0.14l-0.4,0.14l-0.38,0.14l-0.38,0.12l-0.4,0.12l-0.4,0.12
			l-0.42,0.09l-0.42,0.1l-0.4,0.09l-0.87,0.16l-0.87,0.12l-0.9,0.09l-0.94,0.07l-0.94,0.05l-0.97,0.02h-0.59l-0.57-0.05H71.6
			l-0.57-0.05l-0.57-0.07l-0.54-0.05l-0.54-0.09l-0.52-0.07l-0.54-0.09l-0.52-0.12l-0.54-0.12l-0.5-0.12l-0.52-0.14l-0.5-0.16
			l-0.49-0.17l-0.49-0.16l-0.47-0.19l-0.49-0.21l-0.45-0.21l-0.47-0.24l-0.47-0.21l-0.45-0.26l-0.45-0.26l-0.42-0.26l-0.45-0.28
			l-0.42-0.28l-0.42-0.31l-0.42-0.33l-0.4-0.31l-0.4-0.35l-0.4-0.35l-0.4-0.33l-0.38-0.38l-0.38-0.38l-0.35-0.4l-0.35-0.38
			l-0.33-0.4l-0.31-0.4l-0.33-0.4l-0.28-0.42l-0.31-0.4l-0.26-0.45l-0.28-0.42l-0.24-0.42l-0.24-0.45l-0.24-0.45l-0.19-0.47
			l-0.21-0.47l-0.19-0.47l-0.19-0.47l-0.16-0.47l-0.14-0.49l-0.14-0.52l-0.12-0.49l-0.14-0.5l-0.09-0.52l-0.09-0.54l-0.07-0.52
			l-0.07-0.52l-0.05-0.57l-0.05-0.54l-0.02-0.54L51.54,61v-0.57v-0.61l0.02-0.61l0.02-0.59l0.02-0.59l0.05-0.57l0.05-0.57l0.07-0.57
			l0.07-0.54l0.12-0.54l0.09-0.54l0.09-0.52l0.12-0.52l0.14-0.52l0.14-0.49l0.14-0.47l0.17-0.47l0.17-0.47l0.19-0.47l0.19-0.45
			l0.19-0.45l0.21-0.42l0.21-0.42l0.24-0.42l0.26-0.4l0.24-0.4l0.26-0.38l0.28-0.38l0.28-0.38l0.28-0.35l0.31-0.35l0.33-0.35
			l0.31-0.33l0.66-0.64l0.68-0.64l0.68-0.57l0.68-0.57l0.71-0.52l0.68-0.5l0.71-0.47l0.71-0.42l0.75-0.4l0.71-0.38l0.73-0.35
			l0.75-0.31l0.75-0.28l0.75-0.26l0.78-0.24l0.78-0.19l0.33-0.07l0.33-0.07l0.33-0.07l0.31-0.05l0.33-0.05l0.31-0.05l0.31-0.05
			l0.31-0.02l0.28-0.02l0.31-0.05l0.31-0.02l0.31-0.02L72.38,38h0.33h0.31h0.31h0.87l0.87,0.05l0.42,0.05l0.42,0.02l0.4,0.05
			l0.42,0.07l0.42,0.07l0.4,0.07l0.4,0.07l0.4,0.09l0.4,0.09l0.38,0.12l0.38,0.09l0.4,0.12l0.38,0.14l0.38,0.12l0.35,0.14l0.38,0.17
			l0.35,0.14l0.35,0.19l0.35,0.16l0.35,0.19l0.35,0.19l0.35,0.19l0.33,0.21l0.35,0.21l0.31,0.19l0.35,0.26l0.31,0.21l0.33,0.24
			l0.61,0.49l0.61,0.52l0.61,0.54l0.57,0.54l0.59,0.54l0.54,0.56l0.54,0.59l0.52,0.59l0.52,0.61l0.49,0.61l0.47,0.64l0.47,0.64
			l0.45,0.66l0.42,0.68l0.42,0.68l0.4,0.68l-28.8,15.55L61.61,61L82.04,49.41z M5,41.91v-0.68l0.02-0.68l0.02-0.68l0.05-0.66
			l0.02-0.66l0.07-0.64l0.07-0.64l0.05-0.64l0.09-0.61l0.09-0.61l0.12-0.59l0.09-0.57l0.14-0.59l0.12-0.57l0.14-0.54l0.16-0.54
			l0.16-0.54l0.17-0.52l0.19-0.52L7,29.94l0.19-0.5l0.21-0.49l0.24-0.45l0.21-0.47l0.26-0.45l0.24-0.45l0.28-0.42l0.28-0.42
			l0.26-0.42l0.31-0.4l0.31-0.38l0.31-0.38l0.31-0.38l0.35-0.35l0.33-0.35l0.35-0.33l0.38-0.33l0.35-0.31l0.38-0.31l0.4-0.31
			l0.4-0.28l0.42-0.26l0.42-0.28l0.45-0.24l0.42-0.24l0.47-0.24l0.47-0.21l0.45-0.21l0.5-0.19l0.49-0.19l0.52-0.19l0.5-0.16
			L19,19.22l0.52-0.16l0.54-0.12l0.57-0.12l0.57-0.12l0.56-0.09l0.59-0.09l0.61-0.07l0.59-0.09l0.64-0.05l0.61-0.05l0.64-0.02h0.45
			l0.45,0.02l0.45,0.02l0.42,0.02l0.45,0.05l0.42,0.07l0.42,0.05l0.42,0.07l0.42,0.07l0.42,0.09l0.42,0.12l0.4,0.09l0.4,0.12
			l0.4,0.12l0.42,0.16l0.38,0.14l0.4,0.17l0.4,0.16l0.4,0.17l0.38,0.19l0.38,0.19l0.4,0.21l0.35,0.21l0.38,0.24l0.38,0.21l0.35,0.26
			l0.38,0.26l0.35,0.26l0.35,0.28l0.35,0.26l0.35,0.31l0.35,0.28l0.33,0.33l0.33,0.31l0.33,0.31l0.31,0.31l0.28,0.33l0.28,0.33
			l0.28,0.33l0.26,0.33L40.82,26l0.24,0.35l0.24,0.33l0.21,0.35l0.21,0.33l0.19,0.35l0.21,0.35l0.17,0.38l0.16,0.35l0.16,0.35
			l0.14,0.38l0.14,0.38l0.12,0.38l0.12,0.35l0.09,0.4l0.09,0.38l0.09,0.38l0.05,0.4l0.07,0.4l0.05,0.4l0.02,0.4l0.05,0.4v0.4v0.42
			v1.06v0.52v0.52l-0.05,0.52l-0.05,0.52l-0.05,0.49l-0.05,0.52l-0.09,0.5l-0.09,0.49l-0.12,0.5l-0.09,0.47l-0.14,0.47l-0.14,0.49
			l-0.16,0.45l-0.16,0.49l-0.16,0.45l-0.19,0.47l-0.21,0.45l-0.24,0.42l-0.24,0.42l-0.26,0.4l-0.26,0.38l-0.28,0.38l-0.31,0.35
			L40,46.7L39.67,47l-0.35,0.31l-0.38,0.31l-0.38,0.28l-0.4,0.26l-0.42,0.24l-0.42,0.21l-0.45,0.21l0.45,0.21l0.45,0.21l0.4,0.21
			l0.42,0.26l0.4,0.26l0.38,0.26l0.38,0.28l0.35,0.28l0.35,0.31l0.33,0.31l0.33,0.35l0.31,0.35l0.31,0.35L42,52.85l0.26,0.38
			l0.26,0.4l0.24,0.42l0.24,0.4l0.21,0.42l0.21,0.45l0.16,0.45l0.17,0.45l0.16,0.45l0.12,0.47l0.12,0.47l0.12,0.47l0.07,0.47
			l0.07,0.52l0.05,0.49l0.05,0.49l0.02,0.52v0.54v18.81h-8.34V62.37l-0.02-0.57l-0.02-0.54l-0.07-0.54l-0.07-0.5l-0.12-0.49
			l-0.14-0.47l-0.16-0.45l-0.17-0.45l-0.21-0.4l-0.24-0.4l-0.26-0.35l-0.28-0.35l-0.31-0.33l-0.35-0.31l-0.35-0.31l-0.38-0.26
			l-0.42-0.26l-0.4-0.24l-0.45-0.24l-0.45-0.21l-0.45-0.19l-0.47-0.16l-0.49-0.14l-0.52-0.14l-0.52-0.14l-0.54-0.12l-0.54-0.07
			l-0.57-0.07l-0.59-0.07L26,53.55l-0.59-0.02h-0.66h-8.34v-7.57h7.02l0.05,0.05l0.07,0.02l0.07,0.02l0.09,0.05l0.19,0.02l0.21,0.02
			h0.09l0.05,0.02l0.05,0.02l0.09,0.02l0.09,0.02h0.17h0.09h0.21h0.19h0.17h0.17l0.16-0.02l0.19-0.02l0.19-0.02l0.19-0.02l0.42-0.07
			l0.42-0.09l0.42-0.09l0.42-0.12l0.4-0.14l0.4-0.14l0.42-0.19l0.4-0.16l0.38-0.21l0.4-0.21l0.4-0.24l0.38-0.24l0.38-0.28l0.38-0.28
			l0.38-0.28l0.38-0.33l0.35-0.33l0.31-0.33l0.33-0.38l0.28-0.38l0.26-0.4l0.24-0.42l0.24-0.42l0.19-0.45l0.16-0.47l0.14-0.47
			l0.12-0.49L35.33,38l0.07-0.54l0.05-0.54l0.05-0.57v-0.57v-0.57l-0.02-0.52l-0.05-0.52l-0.07-0.5l-0.09-0.47l-0.09-0.47
			l-0.14-0.45l-0.14-0.42l-0.19-0.4l-0.19-0.38l-0.19-0.38l-0.24-0.35l-0.24-0.33l-0.28-0.31l-0.28-0.28l-0.31-0.28l-0.33-0.26
			l-0.31-0.24l-0.33-0.24l-0.33-0.24l-0.33-0.19L31,27.8l-0.33-0.19l-0.35-0.16l-0.33-0.17l-0.35-0.16L29.27,27l-0.38-0.14
			l-0.35-0.09l-0.35-0.12l-0.38-0.09l-0.35-0.07l-0.35-0.05l-0.33-0.02l-0.33-0.05l-0.33-0.02l-0.35-0.02h-0.33l-0.33-0.02h-0.35
			l-0.57,0.02h-0.57l-0.54,0.05l-0.52,0.07l-0.52,0.07l-0.5,0.12l-0.49,0.09l-0.45,0.14l-0.45,0.17l-0.42,0.14l-0.4,0.19l-0.4,0.21
			l-0.38,0.21l-0.35,0.24l-0.35,0.26l-0.33,0.28l-0.31,0.26l-0.31,0.31l-0.28,0.28l-0.26,0.31l-0.28,0.31l-0.26,0.31l-0.24,0.28
			l-0.24,0.33l-0.21,0.31l-0.21,0.33l-0.19,0.33l-0.19,0.31l-0.16,0.35l-0.16,0.33l-0.16,0.35l-0.12,0.33l-0.12,0.28l-0.12,0.31
			l-0.09,0.28l-0.09,0.28l-0.07,0.28l-0.07,0.31L13.3,35.6l-0.05,0.28l-0.09,0.57l-0.05,0.54l-0.05,0.52V38v41.93H5V41.91z"/>
		<path id="XMLID_1394_" class="st3" d="M245.36,71.98v0.28c0.02,0.12,0.02,0.21,0.02,0.28c0,0.71-0.07,1.39-0.19,2
			c-0.14,0.64-0.33,1.2-0.61,1.77c-0.78,1.58-1.86,2.78-3.23,3.65c-1.39,0.85-2.92,1.3-4.64,1.3c-1.27,0-2.45-0.26-3.54-0.73
			c-1.08-0.49-2.05-1.2-2.92-2.17c-0.71-0.8-1.25-1.72-1.63-2.73c-0.38-1.01-0.57-2.1-0.57-3.23c0-1.18,0.21-2.29,0.68-3.35
			c0.45-1.04,1.11-2,2-2.87c0.83-0.82,1.74-1.41,2.76-1.84c1.04-0.38,2.17-0.59,3.39-0.59c1.81,0,3.39,0.45,4.71,1.32
			c1.32,0.9,2.33,2.19,3.04,3.89h-4.01c-0.47-0.61-1.06-1.06-1.72-1.37s-1.39-0.45-2.19-0.45c-1.46,0-2.66,0.52-3.68,1.56
			c-0.99,1.04-1.51,2.31-1.51,3.79c0,1.51,0.52,2.78,1.53,3.82c1.01,1.04,2.26,1.55,3.75,1.55c1.01,0,1.96-0.28,2.78-0.82
			c0.85-0.57,1.46-1.32,1.86-2.26h-6.62v-2.8H245.36z M256.51,80.92h-9.07V64.09h9.07v2.97h-5.82v3.84h5.82v2.9h-5.82v4.17h5.82
			V80.92z M267.8,80.92h-8.53V64.09h3.25v13.88h5.28V80.92z"/>
	</g>
</g>
</svg>
